<svg width="438" height="63" viewBox="0 0 438 63" fill="none" xmlns="http://www.w3.org/2000/svg">
<path d="M1.51705 23V5.54545H13.2784V8.58807H5.20739V12.7472H12.6733V15.7898H5.20739V19.9574H13.3125V23H1.51705ZM18.2663 23.2216C17.7038 23.2216 17.2209 23.0227 16.8175 22.625C16.4197 22.2216 16.2209 21.7386 16.2209 21.1761C16.2209 20.6193 16.4197 20.142 16.8175 19.7443C17.2209 19.3466 17.7038 19.1477 18.2663 19.1477C18.8118 19.1477 19.2891 19.3466 19.6982 19.7443C20.1072 20.142 20.3118 20.6193 20.3118 21.1761C20.3118 21.5511 20.2152 21.8949 20.022 22.2074C19.8345 22.5142 19.5874 22.7614 19.2805 22.9489C18.9737 23.1307 18.6357 23.2216 18.2663 23.2216ZM34.9347 11.1875C34.8153 10.7727 34.6477 10.4062 34.4318 10.0881C34.2159 9.7642 33.9517 9.49148 33.6392 9.26989C33.3324 9.04261 32.9801 8.86932 32.5824 8.75C32.1903 8.63068 31.7557 8.57102 31.2784 8.57102C30.3864 8.57102 29.6023 8.79261 28.9261 9.23579C28.2557 9.67898 27.733 10.3239 27.358 11.1705C26.983 12.0114 26.7955 13.0398 26.7955 14.2557C26.7955 15.4716 26.9801 16.5057 27.3494 17.358C27.7188 18.2102 28.2415 18.8608 28.9176 19.3097C29.5938 19.7528 30.392 19.9744 31.3125 19.9744C32.1477 19.9744 32.8608 19.8267 33.4517 19.5312C34.0483 19.2301 34.5028 18.8068 34.8153 18.2614C35.1335 17.7159 35.2926 17.071 35.2926 16.3267L36.0426 16.4375H31.5426V13.6591H38.8466V15.858C38.8466 17.392 38.5227 18.7102 37.875 19.8125C37.2273 20.9091 36.3352 21.7557 35.1989 22.3523C34.0625 22.9432 32.7614 23.2386 31.2955 23.2386C29.6591 23.2386 28.2216 22.8778 26.983 22.1562C25.7443 21.429 24.7784 20.3977 24.0852 19.0625C23.3977 17.7216 23.054 16.1307 23.054 14.2898C23.054 12.875 23.2585 11.6136 23.6676 10.5057C24.0824 9.39205 24.6619 8.44886 25.4062 7.67614C26.1506 6.90341 27.017 6.31534 28.0057 5.91193C28.9943 5.50852 30.0653 5.30682 31.2188 5.30682C32.2074 5.30682 33.1278 5.4517 33.9801 5.74148C34.8324 6.02557 35.5881 6.42898 36.2472 6.9517C36.9119 7.47443 37.4545 8.09659 37.875 8.81818C38.2955 9.53409 38.5653 10.3239 38.6847 11.1875H34.9347ZM43.6726 23.2216C43.1101 23.2216 42.6271 23.0227 42.2237 22.625C41.826 22.2216 41.6271 21.7386 41.6271 21.1761C41.6271 20.6193 41.826 20.142 42.2237 19.7443C42.6271 19.3466 43.1101 19.1477 43.6726 19.1477C44.218 19.1477 44.6953 19.3466 45.1044 19.7443C45.5135 20.142 45.718 20.6193 45.718 21.1761C45.718 21.5511 45.6214 21.8949 45.4283 22.2074C45.2408 22.5142 44.9936 22.7614 44.6868 22.9489C44.38 23.1307 44.0419 23.2216 43.6726 23.2216ZM58.2358 10.5653C58.1676 9.87784 57.875 9.34375 57.358 8.96307C56.8409 8.58239 56.1392 8.39204 55.2528 8.39204C54.6506 8.39204 54.142 8.47727 53.7273 8.64773C53.3125 8.8125 52.9943 9.04261 52.7727 9.33807C52.5568 9.63352 52.4489 9.96875 52.4489 10.3438C52.4375 10.6562 52.5028 10.929 52.6449 11.1619C52.7926 11.3949 52.9943 11.5966 53.25 11.767C53.5057 11.9318 53.8011 12.0767 54.1364 12.2017C54.4716 12.321 54.8295 12.4233 55.2102 12.5085L56.7784 12.8835C57.5398 13.054 58.2386 13.2812 58.875 13.5653C59.5114 13.8494 60.0625 14.1989 60.5284 14.6136C60.9943 15.0284 61.3551 15.517 61.6108 16.0795C61.8722 16.642 62.0057 17.2869 62.0114 18.0142C62.0057 19.0824 61.733 20.0085 61.1932 20.7926C60.6591 21.571 59.8864 22.1761 58.875 22.608C57.8693 23.0341 56.6563 23.2472 55.2358 23.2472C53.8267 23.2472 52.5994 23.0312 51.554 22.5994C50.5142 22.1676 49.7017 21.5284 49.1165 20.6818C48.5369 19.8295 48.233 18.7756 48.2045 17.5199H51.7756C51.8153 18.1051 51.983 18.5937 52.2784 18.9858C52.5795 19.3722 52.9801 19.6648 53.4801 19.8636C53.9858 20.0568 54.5568 20.1534 55.1932 20.1534C55.8182 20.1534 56.3608 20.0625 56.821 19.8807C57.2869 19.6989 57.6477 19.446 57.9034 19.1222C58.1591 18.7983 58.2869 18.4261 58.2869 18.0057C58.2869 17.6136 58.1705 17.2841 57.9375 17.017C57.7102 16.75 57.375 16.5227 56.9318 16.3352C56.4943 16.1477 55.9574 15.9773 55.321 15.8239L53.4205 15.3466C51.9489 14.9886 50.7869 14.429 49.9347 13.6676C49.0824 12.9062 48.6591 11.8807 48.6648 10.5909C48.6591 9.53409 48.9403 8.6108 49.5085 7.82102C50.0824 7.03125 50.8693 6.41477 51.8693 5.97159C52.8693 5.52841 54.0057 5.30682 55.2784 5.30682C56.5739 5.30682 57.7045 5.52841 58.6705 5.97159C59.642 6.41477 60.3977 7.03125 60.9375 7.82102C61.4773 8.6108 61.7557 9.52557 61.7727 10.5653H58.2358ZM70.0483 23V5.54545H76.9347C78.2585 5.54545 79.3864 5.7983 80.3182 6.30398C81.25 6.80398 81.9602 7.5 82.4489 8.39204C82.9432 9.27841 83.1903 10.3011 83.1903 11.4602C83.1903 12.6193 82.9403 13.642 82.4403 14.5284C81.9403 15.4148 81.2159 16.1051 80.267 16.5994C79.3239 17.0937 78.1818 17.3409 76.8409 17.3409H72.4517V14.3835H76.2443C76.9545 14.3835 77.5398 14.2614 78 14.017C78.4659 13.767 78.8125 13.4233 79.0398 12.9858C79.2727 12.5426 79.3892 12.0341 79.3892 11.4602C79.3892 10.8807 79.2727 10.375 79.0398 9.94318C78.8125 9.50568 78.4659 9.16761 78 8.92898C77.5341 8.68466 76.9432 8.5625 76.2273 8.5625H73.7386V23H70.0483ZM89.2777 5.54545V23H85.5874V5.54545H89.2777ZM92.3139 23V5.54545H96.0043V19.9574H103.487V23H92.3139ZM105.931 23V5.54545H109.621V19.9574H117.104V23H105.931ZM123.002 23H119.048L125.073 5.54545H129.829L135.846 23H131.891L127.519 9.53409H127.383L123.002 23ZM122.755 16.1392H132.096V19.0199H122.755V16.1392ZM135.143 5.54545H139.276L143.256 13.0625H143.427L147.407 5.54545H151.54L145.174 16.8295V23H141.509V16.8295L135.143 5.54545ZM159.111 23V5.54545H170.872V8.58807H162.801V12.7472H170.267V15.7898H162.801V19.9574H170.906V23H159.111ZM188.406 5.54545V23H185.218L177.624 12.0142H177.496V23H173.806V5.54545H177.045L184.579 16.5227H184.732V5.54545H188.406ZM203.028 11.1875C202.909 10.7727 202.741 10.4062 202.526 10.0881C202.31 9.7642 202.045 9.49148 201.733 9.26989C201.426 9.04261 201.074 8.86932 200.676 8.75C200.284 8.63068 199.849 8.57102 199.372 8.57102C198.48 8.57102 197.696 8.79261 197.02 9.23579C196.349 9.67898 195.827 10.3239 195.452 11.1705C195.077 12.0114 194.889 13.0398 194.889 14.2557C194.889 15.4716 195.074 16.5057 195.443 17.358C195.813 18.2102 196.335 18.8608 197.011 19.3097C197.688 19.7528 198.486 19.9744 199.406 19.9744C200.241 19.9744 200.955 19.8267 201.545 19.5312C202.142 19.2301 202.597 18.8068 202.909 18.2614C203.227 17.7159 203.386 17.071 203.386 16.3267L204.136 16.4375H199.636V13.6591H206.94V15.858C206.94 17.392 206.616 18.7102 205.969 19.8125C205.321 20.9091 204.429 21.7557 203.293 22.3523C202.156 22.9432 200.855 23.2386 199.389 23.2386C197.753 23.2386 196.315 22.8778 195.077 22.1562C193.838 21.429 192.872 20.3977 192.179 19.0625C191.491 17.7216 191.148 16.1307 191.148 14.2898C191.148 12.875 191.352 11.6136 191.761 10.5057C192.176 9.39205 192.756 8.44886 193.5 7.67614C194.244 6.90341 195.111 6.31534 196.099 5.91193C197.088 5.50852 198.159 5.30682 199.312 5.30682C200.301 5.30682 201.222 5.4517 202.074 5.74148C202.926 6.02557 203.682 6.42898 204.341 6.9517C205.006 7.47443 205.548 8.09659 205.969 8.81818C206.389 9.53409 206.659 10.3239 206.778 11.1875H203.028ZM213.403 5.54545V23H209.712V5.54545H213.403ZM231.038 5.54545V23H227.851L220.257 12.0142H220.129V23H216.439V5.54545H219.678L227.212 16.5227H227.365V5.54545H231.038ZM234.087 23V5.54545H245.849V8.58807H237.778V12.7472H245.244V15.7898H237.778V19.9574H245.883V23H234.087ZM248.783 23V5.54545H260.544V8.58807H252.473V12.7472H259.939V15.7898H252.473V19.9574H260.578V23H248.783ZM263.478 23V5.54545H270.364C271.683 5.54545 272.808 5.78125 273.739 6.25284C274.677 6.71875 275.39 7.38068 275.879 8.23864C276.373 9.09091 276.62 10.0937 276.62 11.2472C276.62 12.4062 276.37 13.4034 275.87 14.2386C275.37 15.0682 274.646 15.7045 273.697 16.1477C272.754 16.5909 271.612 16.8125 270.271 16.8125H265.66V13.8466H269.674C270.379 13.8466 270.964 13.75 271.43 13.5568C271.896 13.3636 272.242 13.0739 272.469 12.6875C272.702 12.3011 272.819 11.821 272.819 11.2472C272.819 10.6676 272.702 10.179 272.469 9.78125C272.242 9.38352 271.893 9.08239 271.421 8.87784C270.955 8.66761 270.367 8.5625 269.657 8.5625H267.168V23H263.478ZM272.904 15.0568L277.242 23H273.168L268.924 15.0568H272.904ZM282.918 5.54545V23H279.228V5.54545H282.918ZM300.554 5.54545V23H297.366L289.773 12.0142H289.645V23H285.955V5.54545H289.193L296.727 16.5227H296.881V5.54545H300.554ZM315.177 11.1875C315.058 10.7727 314.89 10.4062 314.674 10.0881C314.458 9.7642 314.194 9.49148 313.881 9.26989C313.575 9.04261 313.222 8.86932 312.825 8.75C312.433 8.63068 311.998 8.57102 311.521 8.57102C310.629 8.57102 309.844 8.79261 309.168 9.23579C308.498 9.67898 307.975 10.3239 307.6 11.1705C307.225 12.0114 307.038 13.0398 307.038 14.2557C307.038 15.4716 307.222 16.5057 307.592 17.358C307.961 18.2102 308.484 18.8608 309.16 19.3097C309.836 19.7528 310.634 19.9744 311.555 19.9744C312.39 19.9744 313.103 19.8267 313.694 19.5312C314.29 19.2301 314.745 18.8068 315.058 18.2614C315.376 17.7159 315.535 17.071 315.535 16.3267L316.285 16.4375H311.785V13.6591H319.089V15.858C319.089 17.392 318.765 18.7102 318.117 19.8125C317.469 20.9091 316.577 21.7557 315.441 22.3523C314.305 22.9432 313.004 23.2386 311.538 23.2386C309.901 23.2386 308.464 22.8778 307.225 22.1562C305.987 21.429 305.021 20.3977 304.327 19.0625C303.64 17.7216 303.296 16.1307 303.296 14.2898C303.296 12.875 303.501 11.6136 303.91 10.5057C304.325 9.39205 304.904 8.44886 305.648 7.67614C306.393 6.90341 307.259 6.31534 308.248 5.91193C309.237 5.50852 310.308 5.30682 311.461 5.30682C312.45 5.30682 313.37 5.4517 314.222 5.74148C315.075 6.02557 315.83 6.42898 316.489 6.9517C317.154 7.47443 317.697 8.09659 318.117 8.81818C318.538 9.53409 318.808 10.3239 318.927 11.1875H315.177ZM342.816 11.6562H339.083C339.015 11.1733 338.876 10.7443 338.665 10.3693C338.455 9.98864 338.185 9.66477 337.856 9.39773C337.526 9.13068 337.146 8.92614 336.714 8.78409C336.288 8.64205 335.825 8.57102 335.325 8.57102C334.421 8.57102 333.634 8.79545 332.964 9.24432C332.293 9.6875 331.773 10.3352 331.404 11.1875C331.035 12.0341 330.85 13.0625 330.85 14.2727C330.85 15.517 331.035 16.5625 331.404 17.4091C331.779 18.2557 332.302 18.8949 332.972 19.3267C333.643 19.7585 334.418 19.9744 335.299 19.9744C335.793 19.9744 336.251 19.9091 336.671 19.7784C337.097 19.6477 337.475 19.4574 337.805 19.2074C338.134 18.9517 338.407 18.642 338.623 18.2784C338.844 17.9148 338.998 17.5 339.083 17.0341L342.816 17.0511C342.719 17.8523 342.478 18.625 342.092 19.3693C341.711 20.108 341.197 20.7699 340.549 21.3551C339.907 21.9347 339.14 22.3949 338.248 22.7358C337.362 23.071 336.359 23.2386 335.239 23.2386C333.683 23.2386 332.29 22.8864 331.063 22.1818C329.842 21.4773 328.876 20.4574 328.165 19.1222C327.461 17.7869 327.109 16.1705 327.109 14.2727C327.109 12.3693 327.467 10.75 328.183 9.41477C328.898 8.07955 329.87 7.0625 331.097 6.36364C332.325 5.65909 333.705 5.30682 335.239 5.30682C336.251 5.30682 337.188 5.44886 338.052 5.73295C338.921 6.01705 339.691 6.43182 340.362 6.97727C341.032 7.51704 341.577 8.17898 341.998 8.96307C342.424 9.74716 342.697 10.6449 342.816 11.6562ZM361.502 14.2727C361.502 16.1761 361.141 17.7955 360.42 19.1307C359.704 20.4659 358.727 21.4858 357.488 22.1903C356.255 22.8892 354.869 23.2386 353.329 23.2386C351.778 23.2386 350.386 22.8864 349.153 22.1818C347.92 21.4773 346.945 20.4574 346.229 19.1222C345.513 17.7869 345.156 16.1705 345.156 14.2727C345.156 12.3693 345.513 10.75 346.229 9.41477C346.945 8.07955 347.92 7.0625 349.153 6.36364C350.386 5.65909 351.778 5.30682 353.329 5.30682C354.869 5.30682 356.255 5.65909 357.488 6.36364C358.727 7.0625 359.704 8.07955 360.42 9.41477C361.141 10.75 361.502 12.3693 361.502 14.2727ZM357.761 14.2727C357.761 13.0398 357.576 12 357.207 11.1534C356.843 10.3068 356.329 9.66477 355.664 9.22727C354.999 8.78977 354.221 8.57102 353.329 8.57102C352.437 8.57102 351.658 8.78977 350.994 9.22727C350.329 9.66477 349.812 10.3068 349.442 11.1534C349.079 12 348.897 13.0398 348.897 14.2727C348.897 15.5057 349.079 16.5455 349.442 17.392C349.812 18.2386 350.329 18.8807 350.994 19.3182C351.658 19.7557 352.437 19.9744 353.329 19.9744C354.221 19.9744 354.999 19.7557 355.664 19.3182C356.329 18.8807 356.843 18.2386 357.207 17.392C357.576 16.5455 357.761 15.5057 357.761 14.2727ZM364.236 23V5.54545H367.926V19.9574H375.409V23H364.236ZM377.853 23V5.54545H381.543V19.9574H389.026V23H377.853ZM391.47 23V5.54545H403.232V8.58807H395.161V12.7472H402.626V15.7898H395.161V19.9574H403.266V23H391.47ZM421.566 11.6562H417.833C417.765 11.1733 417.626 10.7443 417.415 10.3693C417.205 9.98864 416.935 9.66477 416.606 9.39773C416.276 9.13068 415.896 8.92614 415.464 8.78409C415.038 8.64205 414.575 8.57102 414.075 8.57102C413.171 8.57102 412.384 8.79545 411.714 9.24432C411.043 9.6875 410.523 10.3352 410.154 11.1875C409.785 12.0341 409.6 13.0625 409.6 14.2727C409.6 15.517 409.785 16.5625 410.154 17.4091C410.529 18.2557 411.052 18.8949 411.722 19.3267C412.393 19.7585 413.168 19.9744 414.049 19.9744C414.543 19.9744 415.001 19.9091 415.421 19.7784C415.847 19.6477 416.225 19.4574 416.555 19.2074C416.884 18.9517 417.157 18.642 417.373 18.2784C417.594 17.9148 417.748 17.5 417.833 17.0341L421.566 17.0511C421.469 17.8523 421.228 18.625 420.842 19.3693C420.461 20.108 419.947 20.7699 419.299 21.3551C418.657 21.9347 417.89 22.3949 416.998 22.7358C416.112 23.071 415.109 23.2386 413.989 23.2386C412.433 23.2386 411.04 22.8864 409.813 22.1818C408.592 21.4773 407.626 20.4574 406.915 19.1222C406.211 17.7869 405.859 16.1705 405.859 14.2727C405.859 12.3693 406.217 10.75 406.933 9.41477C407.648 8.07955 408.62 7.0625 409.847 6.36364C411.075 5.65909 412.455 5.30682 413.989 5.30682C415.001 5.30682 415.938 5.44886 416.802 5.73295C417.671 6.01705 418.441 6.43182 419.112 6.97727C419.782 7.51704 420.327 8.17898 420.748 8.96307C421.174 9.74716 421.447 10.6449 421.566 11.6562ZM424.212 23V5.54545H435.974V8.58807H427.903V12.7472H435.369V15.7898H427.903V19.9574H436.008V23H424.212Z" fill="#001B70"/>
<path d="M8.554 43L7.616 40.788H2.674L1.736 43H0.014L4.34 33.2H6.034L10.318 43H8.554ZM3.29 39.318H6.986L5.138 34.964L3.29 39.318ZM15.8799 35.496C17.6159 35.496 18.6519 36.588 18.6519 38.366V43H17.0419V38.814C17.0419 37.694 16.3699 37.008 15.2499 37.008C14.0179 37.022 13.2479 37.876 13.1359 39.038V43H11.5259V35.552H13.1359V36.98C13.6679 35.944 14.6199 35.496 15.8799 35.496ZM32.3704 43L31.4324 40.788H26.4904L25.5524 43H23.8304L28.1564 33.2H29.8504L34.1344 43H32.3704ZM27.1064 39.318H30.8024L28.9544 34.964L27.1064 39.318ZM40.1252 35.552H41.7352V43H40.1252V41.544C39.6212 42.58 38.6832 43.042 37.4652 43.056C35.7572 43.056 34.7352 41.964 34.7352 40.186V35.552H36.3452V39.738C36.3452 40.858 37.0032 41.544 38.0812 41.544C39.3692 41.516 40.1252 40.522 40.1252 39.22V35.552ZM47.9277 41.292L48.3337 42.524C47.7457 42.874 47.1297 43.07 46.4997 43.07C45.3797 43.07 44.4137 42.426 44.4137 40.9V37.036H43.3637V35.832H44.4137V33.788H46.0097V35.832H48.2077V37.036H46.0097V40.606C46.0097 41.376 46.3037 41.614 46.8077 41.614C47.1437 41.614 47.4937 41.502 47.9277 41.292ZM52.9308 35.496C55.2268 35.496 56.8088 37.022 56.8088 39.262C56.8088 41.516 55.2268 43.056 52.9308 43.056C50.6208 43.056 49.0388 41.516 49.0388 39.262C49.0388 37.022 50.6208 35.496 52.9308 35.496ZM52.9308 36.868C51.5868 36.868 50.6488 37.862 50.6488 39.29C50.6488 40.732 51.5868 41.712 52.9308 41.712C54.2608 41.712 55.1988 40.732 55.1988 39.29C55.1988 37.862 54.2608 36.868 52.9308 36.868ZM62.8428 35.496C64.5788 35.496 65.6148 36.588 65.6148 38.366V43H64.0048V38.814C64.0048 37.694 63.3328 37.008 62.2128 37.008C60.9808 37.022 60.2108 37.876 60.0988 39.038V43H58.4888V35.552H60.0988V36.98C60.6308 35.944 61.5828 35.496 62.8428 35.496ZM70.964 35.496C73.26 35.496 74.842 37.022 74.842 39.262C74.842 41.516 73.26 43.056 70.964 43.056C68.654 43.056 67.072 41.516 67.072 39.262C67.072 37.022 68.654 35.496 70.964 35.496ZM70.964 36.868C69.62 36.868 68.682 37.862 68.682 39.29C68.682 40.732 69.62 41.712 70.964 41.712C72.294 41.712 73.232 40.732 73.232 39.29C73.232 37.862 72.294 36.868 70.964 36.868ZM86.238 35.496C87.946 35.496 88.968 36.588 88.968 38.366V43H87.358V38.814C87.358 37.68 86.686 36.994 85.594 36.994C84.32 37.036 83.55 38.016 83.55 39.318V43H81.94V38.814C81.94 37.68 81.282 36.994 80.19 36.994C78.902 37.036 78.118 38.016 78.118 39.318V43H76.522V35.552H78.118V36.994C78.636 35.944 79.588 35.496 80.82 35.496C82.15 35.496 83.06 36.154 83.41 37.288C83.886 36.042 84.88 35.496 86.238 35.496ZM94.3156 35.496C96.6116 35.496 98.1936 37.022 98.1936 39.262C98.1936 41.516 96.6116 43.056 94.3156 43.056C92.0056 43.056 90.4236 41.516 90.4236 39.262C90.4236 37.022 92.0056 35.496 94.3156 35.496ZM94.3156 36.868C92.9716 36.868 92.0336 37.862 92.0336 39.29C92.0336 40.732 92.9716 41.712 94.3156 41.712C95.6456 41.712 96.5836 40.732 96.5836 39.29C96.5836 37.862 95.6456 36.868 94.3156 36.868ZM105.026 35.552H106.636V43H105.026V41.544C104.522 42.58 103.584 43.042 102.366 43.056C100.658 43.056 99.6356 41.964 99.6356 40.186V35.552H101.246V39.738C101.246 40.858 101.904 41.544 102.982 41.544C104.27 41.516 105.026 40.522 105.026 39.22V35.552ZM113.262 37.428C112.604 37.022 111.778 36.77 111.12 36.77C110.49 36.77 110.028 36.98 110.028 37.512C110.028 38.884 113.99 38.142 113.976 40.844C113.976 42.37 112.618 43.056 111.12 43.056C110.028 43.056 108.866 42.692 108.124 42.02L108.698 40.872C109.342 41.446 110.378 41.796 111.19 41.796C111.876 41.796 112.408 41.558 112.408 40.998C112.408 39.472 108.488 40.326 108.502 37.638C108.502 36.126 109.818 35.482 111.246 35.482C112.184 35.482 113.178 35.762 113.85 36.238L113.262 37.428ZM119.892 33.2H121.544V43H119.892V33.2ZM128.372 35.496C130.108 35.496 131.144 36.588 131.144 38.366V43H129.534V38.814C129.534 37.694 128.862 37.008 127.742 37.008C126.51 37.022 125.74 37.876 125.628 39.038V43H124.018V35.552H125.628V36.98C126.16 35.944 127.112 35.496 128.372 35.496ZM137.543 37.428C136.885 37.022 136.059 36.77 135.401 36.77C134.771 36.77 134.309 36.98 134.309 37.512C134.309 38.884 138.271 38.142 138.257 40.844C138.257 42.37 136.899 43.056 135.401 43.056C134.309 43.056 133.147 42.692 132.405 42.02L132.979 40.872C133.623 41.446 134.659 41.796 135.471 41.796C136.157 41.796 136.689 41.558 136.689 40.998C136.689 39.472 132.769 40.326 132.783 37.638C132.783 36.126 134.099 35.482 135.527 35.482C136.465 35.482 137.459 35.762 138.131 36.238L137.543 37.428ZM143.686 41.292L144.092 42.524C143.504 42.874 142.888 43.07 142.258 43.07C141.138 43.07 140.172 42.426 140.172 40.9V37.036H139.122V35.832H140.172V33.788H141.768V35.832H143.966V37.036H141.768V40.606C141.768 41.376 142.062 41.614 142.566 41.614C142.902 41.614 143.252 41.502 143.686 41.292ZM146.377 32.458C146.909 32.458 147.315 32.864 147.315 33.424C147.315 33.97 146.909 34.376 146.377 34.376C145.845 34.376 145.439 33.97 145.439 33.424C145.439 32.864 145.845 32.458 146.377 32.458ZM145.579 35.552H147.175V43H145.579V35.552ZM153.365 41.292L153.771 42.524C153.183 42.874 152.567 43.07 151.937 43.07C150.817 43.07 149.851 42.426 149.851 40.9V37.036H148.801V35.832H149.851V33.788H151.447V35.832H153.645V37.036H151.447V40.606C151.447 41.376 151.741 41.614 152.245 41.614C152.581 41.614 152.931 41.502 153.365 41.292ZM160.41 35.552H162.02V43H160.41V41.544C159.906 42.58 158.968 43.042 157.75 43.056C156.042 43.056 155.02 41.964 155.02 40.186V35.552H156.63V39.738C156.63 40.858 157.288 41.544 158.366 41.544C159.654 41.516 160.41 40.522 160.41 39.22V35.552ZM168.213 41.292L168.619 42.524C168.031 42.874 167.415 43.07 166.785 43.07C165.665 43.07 164.699 42.426 164.699 40.9V37.036H163.649V35.832H164.699V33.788H166.295V35.832H168.493V37.036H166.295V40.606C166.295 41.376 166.589 41.614 167.093 41.614C167.429 41.614 167.779 41.502 168.213 41.292ZM170.904 32.458C171.436 32.458 171.842 32.864 171.842 33.424C171.842 33.97 171.436 34.376 170.904 34.376C170.372 34.376 169.966 33.97 169.966 33.424C169.966 32.864 170.372 32.458 170.904 32.458ZM170.106 35.552H171.702V43H170.106V35.552ZM177.277 35.496C179.573 35.496 181.155 37.022 181.155 39.262C181.155 41.516 179.573 43.056 177.277 43.056C174.967 43.056 173.385 41.516 173.385 39.262C173.385 37.022 174.967 35.496 177.277 35.496ZM177.277 36.868C175.933 36.868 174.995 37.862 174.995 39.29C174.995 40.732 175.933 41.712 177.277 41.712C178.607 41.712 179.545 40.732 179.545 39.29C179.545 37.862 178.607 36.868 177.277 36.868ZM187.189 35.496C188.925 35.496 189.961 36.588 189.961 38.366V43H188.351V38.814C188.351 37.694 187.679 37.008 186.559 37.008C185.327 37.022 184.557 37.876 184.445 39.038V43H182.835V35.552H184.445V36.98C184.977 35.944 185.929 35.496 187.189 35.496ZM203.679 43L202.741 40.788H197.799L196.861 43H195.139L199.465 33.2H201.159L205.443 43H203.679ZM198.415 39.318H202.111L200.263 34.964L198.415 39.318ZM217.137 34.376C216.605 34.376 216.199 33.97 216.199 33.424C216.199 32.864 216.605 32.458 217.137 32.458C217.669 32.458 218.075 32.864 218.075 33.424C218.075 33.97 217.669 34.376 217.137 34.376ZM209.563 33.942C209.017 33.942 208.555 34.25 208.555 34.95V35.832H210.501V37.036H208.555V43H206.959V37.036H205.979V35.832H206.959V35.104C206.959 33.368 208.233 32.542 209.521 32.542C210.123 32.542 210.725 32.71 211.201 33.06L210.585 34.292C210.277 34.068 209.899 33.942 209.563 33.942ZM211.845 35.104C211.845 33.326 213.161 32.542 214.407 32.542C214.911 32.542 215.401 32.654 215.793 32.878L215.737 34.278C215.303 34.082 214.841 33.956 214.449 33.956C213.875 33.956 213.441 34.222 213.441 34.95V35.832H215.387V37.036H213.441V43H211.845V37.036H210.865V35.832H211.845V35.104ZM216.339 43V35.552H217.935V43H216.339ZM220.379 32.612H221.989V43H220.379V32.612ZM225.236 32.458C225.768 32.458 226.174 32.864 226.174 33.424C226.174 33.97 225.768 34.376 225.236 34.376C224.704 34.376 224.298 33.97 224.298 33.424C224.298 32.864 224.704 32.458 225.236 32.458ZM224.438 35.552H226.034V43H224.438V35.552ZM234.465 43H232.883V42.09C232.351 42.748 231.497 43.07 230.419 43.07C228.809 43.07 227.801 42.076 227.801 40.76C227.801 39.402 228.823 38.534 230.615 38.52H232.869V38.296C232.869 37.358 232.267 36.798 231.091 36.798C230.377 36.798 229.635 37.05 228.893 37.554L228.235 36.434C229.271 35.818 230.027 35.496 231.441 35.496C233.359 35.496 234.437 36.476 234.451 38.114L234.465 43ZM230.755 41.796C231.903 41.796 232.785 41.194 232.869 40.382V39.696H230.853C229.803 39.696 229.313 39.976 229.313 40.69C229.313 41.362 229.859 41.796 230.755 41.796ZM240.428 41.292L240.834 42.524C240.246 42.874 239.63 43.07 239 43.07C237.88 43.07 236.914 42.426 236.914 40.9V37.036H235.864V35.832H236.914V33.788H238.51V35.832H240.708V37.036H238.51V40.606C238.51 41.376 238.804 41.614 239.308 41.614C239.644 41.614 239.994 41.502 240.428 41.292ZM245.305 35.496C247.923 35.496 248.987 37.204 248.791 39.892H243.163C243.415 41.04 244.297 41.754 245.473 41.754C246.285 41.754 247.027 41.446 247.573 40.886L248.427 41.796C247.699 42.594 246.635 43.056 245.347 43.056C243.051 43.056 241.539 41.53 241.539 39.29C241.539 37.036 243.093 35.51 245.305 35.496ZM243.135 38.716H247.391C247.335 37.512 246.537 36.784 245.319 36.784C244.143 36.784 243.303 37.526 243.135 38.716ZM255.957 32.612H257.567V43H255.957V41.726C255.425 42.594 254.529 43.07 253.339 43.07C251.197 43.07 249.769 41.516 249.769 39.248C249.769 37.008 251.211 35.482 253.311 35.482C254.515 35.482 255.411 35.972 255.957 36.84V32.612ZM253.675 41.726C255.019 41.726 255.957 40.718 255.957 39.304C255.957 37.862 255.019 36.854 253.675 36.854C252.331 36.854 251.393 37.876 251.379 39.304C251.393 40.718 252.317 41.726 253.675 41.726ZM268.018 41.292L268.424 42.524C267.836 42.874 267.22 43.07 266.59 43.07C265.47 43.07 264.504 42.426 264.504 40.9V37.036H263.454V35.832H264.504V33.788H266.1V35.832H268.298V37.036H266.1V40.606C266.1 41.376 266.394 41.614 266.898 41.614C267.234 41.614 267.584 41.502 268.018 41.292ZM273.021 35.496C275.317 35.496 276.899 37.022 276.899 39.262C276.899 41.516 275.317 43.056 273.021 43.056C270.711 43.056 269.129 41.516 269.129 39.262C269.129 37.022 270.711 35.496 273.021 35.496ZM273.021 36.868C271.677 36.868 270.739 37.862 270.739 39.29C270.739 40.732 271.677 41.712 273.021 41.712C274.351 41.712 275.289 40.732 275.289 39.29C275.289 37.862 274.351 36.868 273.021 36.868ZM290.14 43L289.202 40.788H284.26L283.322 43H281.6L285.926 33.2H287.62L291.904 43H290.14ZM284.876 39.318H288.572L286.724 34.964L284.876 39.318ZM297.466 35.496C299.202 35.496 300.238 36.588 300.238 38.366V43H298.628V38.814C298.628 37.694 297.956 37.008 296.836 37.008C295.604 37.022 294.834 37.876 294.722 39.038V43H293.112V35.552H294.722V36.98C295.254 35.944 296.206 35.496 297.466 35.496ZM306.749 35.496C308.485 35.496 309.521 36.588 309.521 38.366V43H307.911V38.814C307.911 37.694 307.239 37.008 306.119 37.008C304.887 37.022 304.117 37.876 304.005 39.038V43H302.395V35.552H304.005V36.98C304.537 35.944 305.489 35.496 306.749 35.496ZM317.726 43H316.144V42.09C315.612 42.748 314.758 43.07 313.68 43.07C312.07 43.07 311.062 42.076 311.062 40.76C311.062 39.402 312.084 38.534 313.876 38.52H316.13V38.296C316.13 37.358 315.528 36.798 314.352 36.798C313.638 36.798 312.896 37.05 312.154 37.554L311.496 36.434C312.532 35.818 313.288 35.496 314.702 35.496C316.62 35.496 317.698 36.476 317.712 38.114L317.726 43ZM314.016 41.796C315.164 41.796 316.046 41.194 316.13 40.382V39.696H314.114C313.064 39.696 312.574 39.976 312.574 40.69C312.574 41.362 313.12 41.796 314.016 41.796ZM325.633 38.94C325.633 40.592 326.655 41.586 328.265 41.586C329.861 41.586 330.855 40.606 330.855 38.94V33.2H332.507V38.94C332.507 41.502 330.897 43.07 328.251 43.07C325.605 43.07 323.981 41.502 323.981 38.94V33.2H325.633V38.94ZM339.124 35.496C340.86 35.496 341.896 36.588 341.896 38.366V43H340.286V38.814C340.286 37.694 339.614 37.008 338.494 37.008C337.262 37.022 336.492 37.876 336.38 39.038V43H334.77V35.552H336.38V36.98C336.912 35.944 337.864 35.496 339.124 35.496ZM344.851 32.458C345.383 32.458 345.789 32.864 345.789 33.424C345.789 33.97 345.383 34.376 344.851 34.376C344.319 34.376 343.913 33.97 343.913 33.424C343.913 32.864 344.319 32.458 344.851 32.458ZM344.053 35.552H345.649V43H344.053V35.552ZM346.856 35.552H348.536L350.608 41.418L352.652 35.552H354.262L351.406 43H349.74L346.856 35.552ZM358.18 35.496C360.798 35.496 361.862 37.204 361.666 39.892H356.038C356.29 41.04 357.172 41.754 358.348 41.754C359.16 41.754 359.902 41.446 360.448 40.886L361.302 41.796C360.574 42.594 359.51 43.056 358.222 43.056C355.926 43.056 354.414 41.53 354.414 39.29C354.414 37.036 355.968 35.51 358.18 35.496ZM356.01 38.716H360.266C360.21 37.512 359.412 36.784 358.194 36.784C357.018 36.784 356.178 37.526 356.01 38.716ZM364.954 37.036C365.458 36.028 366.354 35.496 367.53 35.496V37.036C366.032 36.952 365.08 37.834 364.954 39.108V43H363.344V35.552H364.954V37.036ZM373.096 37.428C372.438 37.022 371.612 36.77 370.954 36.77C370.324 36.77 369.862 36.98 369.862 37.512C369.862 38.884 373.824 38.142 373.81 40.844C373.81 42.37 372.452 43.056 370.954 43.056C369.862 43.056 368.7 42.692 367.958 42.02L368.532 40.872C369.176 41.446 370.212 41.796 371.024 41.796C371.71 41.796 372.242 41.558 372.242 40.998C372.242 39.472 368.322 40.326 368.336 37.638C368.336 36.126 369.652 35.482 371.08 35.482C372.018 35.482 373.012 35.762 373.684 36.238L373.096 37.428ZM376.228 32.458C376.76 32.458 377.166 32.864 377.166 33.424C377.166 33.97 376.76 34.376 376.228 34.376C375.696 34.376 375.29 33.97 375.29 33.424C375.29 32.864 375.696 32.458 376.228 32.458ZM375.43 35.552H377.026V43H375.43V35.552ZM383.217 41.292L383.623 42.524C383.035 42.874 382.419 43.07 381.789 43.07C380.669 43.07 379.703 42.426 379.703 40.9V37.036H378.653V35.832H379.703V33.788H381.299V35.832H383.497V37.036H381.299V40.606C381.299 41.376 381.593 41.614 382.097 41.614C382.433 41.614 382.783 41.502 383.217 41.292ZM388.036 44.022C387.574 45.198 386.734 45.786 385.614 45.786C384.942 45.786 384.41 45.59 383.892 45.156L384.578 43.91C384.928 44.162 385.208 44.274 385.544 44.274C386.034 44.274 386.426 44.008 386.678 43.448L386.93 42.888L383.85 35.552H385.516L387.742 41.194L389.814 35.552H391.424L388.036 44.022ZM8.554 60L7.616 57.788H2.674L1.736 60H0.014L4.34 50.2H6.034L10.318 60H8.554ZM3.29 56.318H6.986L5.138 51.964L3.29 56.318ZM16.4068 54.75C15.8888 54.218 15.1748 53.896 14.2788 53.91C12.9908 53.91 12.0668 54.876 12.0668 56.29C12.0668 57.704 12.9908 58.67 14.2788 58.67C15.2168 58.67 15.9728 58.362 16.4768 57.774L17.3728 58.67C16.7008 59.552 15.6228 60.056 14.2088 60.056C11.9968 60.056 10.4568 58.53 10.4568 56.29C10.4568 54.036 11.9968 52.496 14.2088 52.496C15.5528 52.496 16.6028 52.93 17.2888 53.714L16.4068 54.75ZM24.0084 54.75C23.4904 54.218 22.7764 53.896 21.8804 53.91C20.5924 53.91 19.6684 54.876 19.6684 56.29C19.6684 57.704 20.5924 58.67 21.8804 58.67C22.8184 58.67 23.5744 58.362 24.0784 57.774L24.9744 58.67C24.3024 59.552 23.2244 60.056 21.8104 60.056C19.5984 60.056 18.0584 58.53 18.0584 56.29C18.0584 54.036 19.5984 52.496 21.8104 52.496C23.1544 52.496 24.2044 52.93 24.8904 53.714L24.0084 54.75ZM28.2707 54.036C28.7747 53.028 29.6707 52.496 30.8467 52.496V54.036C29.3487 53.952 28.3967 54.834 28.2707 56.108V60H26.6607V52.552H28.2707V54.036ZM35.2365 52.496C37.8545 52.496 38.9185 54.204 38.7225 56.892H33.0945C33.3465 58.04 34.2285 58.754 35.4045 58.754C36.2165 58.754 36.9585 58.446 37.5045 57.886L38.3585 58.796C37.6305 59.594 36.5665 60.056 35.2785 60.056C32.9825 60.056 31.4705 58.53 31.4705 56.29C31.4705 54.036 33.0245 52.51 35.2365 52.496ZM33.0665 55.716H37.3225C37.2665 54.512 36.4685 53.784 35.2505 53.784C34.0745 53.784 33.2345 54.526 33.0665 55.716ZM45.8889 49.612H47.4989V60H45.8889V58.726C45.3569 59.594 44.4609 60.07 43.2709 60.07C41.1289 60.07 39.7009 58.516 39.7009 56.248C39.7009 54.008 41.1429 52.482 43.2429 52.482C44.4469 52.482 45.3429 52.972 45.8889 53.84V49.612ZM43.6069 58.726C44.9509 58.726 45.8889 57.718 45.8889 56.304C45.8889 54.862 44.9509 53.854 43.6069 53.854C42.2629 53.854 41.3249 54.876 41.3109 56.304C41.3249 57.718 42.2489 58.726 43.6069 58.726ZM50.7419 49.458C51.2739 49.458 51.6799 49.864 51.6799 50.424C51.6799 50.97 51.2739 51.376 50.7419 51.376C50.2099 51.376 49.8039 50.97 49.8039 50.424C49.8039 49.864 50.2099 49.458 50.7419 49.458ZM49.9439 52.552H51.5399V60H49.9439V52.552ZM57.7304 58.292L58.1364 59.524C57.5484 59.874 56.9324 60.07 56.3024 60.07C55.1824 60.07 54.2164 59.426 54.2164 57.9V54.036H53.1664V52.832H54.2164V50.788H55.8124V52.832H58.0104V54.036H55.8124V57.606C55.8124 58.376 56.1064 58.614 56.6104 58.614C56.9464 58.614 57.2964 58.502 57.7304 58.292ZM62.6076 52.496C65.2256 52.496 66.2896 54.204 66.0936 56.892H60.4656C60.7176 58.04 61.5996 58.754 62.7756 58.754C63.5876 58.754 64.3296 58.446 64.8756 57.886L65.7296 58.796C65.0016 59.594 63.9376 60.056 62.6496 60.056C60.3536 60.056 58.8416 58.53 58.8416 56.29C58.8416 54.036 60.3956 52.51 62.6076 52.496ZM60.4376 55.716H64.6936C64.6376 54.512 63.8396 53.784 62.6216 53.784C61.4456 53.784 60.6056 54.526 60.4376 55.716ZM73.26 49.612H74.87V60H73.26V58.726C72.728 59.594 71.832 60.07 70.642 60.07C68.5 60.07 67.072 58.516 67.072 56.248C67.072 54.008 68.514 52.482 70.614 52.482C71.818 52.482 72.714 52.972 73.26 53.84V49.612ZM70.978 58.726C72.322 58.726 73.26 57.718 73.26 56.304C73.26 54.862 72.322 53.854 70.978 53.854C69.634 53.854 68.696 54.876 68.682 56.304C68.696 57.718 69.62 58.726 70.978 58.726ZM85.7963 52.496C87.9103 52.496 89.3523 54.036 89.3523 56.304C89.3523 58.53 87.9523 60.056 85.8243 60.056C84.6343 60.056 83.7383 59.58 83.1923 58.712V60H81.5823V49.612H83.1923V53.84C83.7383 52.972 84.6343 52.496 85.7963 52.496ZM85.4603 58.684C86.7903 58.684 87.7283 57.676 87.7283 56.248C87.7283 54.862 86.7903 53.84 85.4603 53.84C84.1303 53.84 83.1923 54.848 83.1923 56.248C83.1923 57.69 84.1303 58.684 85.4603 58.684ZM93.6805 61.022C93.2185 62.198 92.3785 62.786 91.2585 62.786C90.5865 62.786 90.0545 62.59 89.5365 62.156L90.2225 60.91C90.5725 61.162 90.8525 61.274 91.1885 61.274C91.6785 61.274 92.0705 61.008 92.3225 60.448L92.5745 59.888L89.4945 52.552H91.1605L93.3865 58.194L95.4585 52.552H97.0685L93.6805 61.022ZM102.487 50.2H104.111L109.361 57.242V50.2H110.985V60H109.361L104.139 52.972V60H102.487V50.2ZM117.831 50.2C119.861 50.2 121.121 51.124 121.121 52.65C121.121 53.742 120.463 54.568 119.399 54.834C120.715 55.058 121.499 55.996 121.499 57.312C121.499 58.992 120.141 60 117.929 60H113.575V50.2H117.831ZM117.747 54.26C118.797 54.26 119.427 53.784 119.427 52.944C119.427 52.132 118.797 51.67 117.747 51.684H115.227V54.26H117.747ZM117.747 58.516C119.035 58.53 119.805 58.012 119.805 57.102C119.805 56.234 119.035 55.702 117.747 55.716H115.227V58.516H117.747ZM130.726 60L129.788 57.788H124.846L123.908 60H122.186L126.512 50.2H128.206L132.49 60H130.726ZM125.462 56.318H129.158L127.31 51.964L125.462 56.318ZM145.889 59.426L145.063 60.266C144.517 59.72 143.999 59.23 143.537 58.768C142.669 59.594 141.661 60.07 140.583 60.07C138.833 60.07 137.503 58.908 137.503 57.326C137.503 55.94 138.511 55.198 139.617 54.61C138.973 53.742 138.679 53.042 138.679 52.342C138.679 51.04 139.701 50.13 141.227 50.13C142.697 50.13 143.705 50.984 143.705 52.188C143.705 53.532 142.529 54.232 141.325 54.862C141.857 55.464 142.543 56.164 143.383 56.99C143.719 56.486 144.013 55.898 144.265 55.226L145.315 56.01C145.021 56.71 144.685 57.34 144.293 57.872L145.889 59.426ZM139.953 52.328C139.953 52.846 140.191 53.392 140.681 54.064C141.633 53.574 142.431 53.07 142.431 52.202C142.431 51.558 141.969 51.138 141.241 51.138C140.457 51.138 139.953 51.656 139.953 52.328ZM140.639 58.852C141.353 58.852 142.039 58.502 142.655 57.9C141.675 56.92 140.891 56.122 140.275 55.422C139.463 55.884 138.833 56.402 138.833 57.2C138.833 58.18 139.631 58.852 140.639 58.852ZM151.474 50.2H153.098L158.348 57.242V50.2H159.972V60H158.348L153.126 52.972V60H151.474V50.2ZM169.827 60L168.889 57.788H163.947L163.009 60H161.287L165.613 50.2H167.307L171.591 60H169.827ZM164.563 56.318H168.259L166.411 51.964L164.563 56.318ZM180.163 60L179.225 57.788H174.283L173.345 60H171.623L175.949 50.2H177.643L181.927 60H180.163ZM174.899 56.318H178.595L176.747 51.964L174.899 56.318ZM190.085 52.874C189.371 52.104 188.349 51.628 187.355 51.628C185.395 51.628 183.855 53.14 183.855 55.072C183.855 57.004 185.395 58.53 187.355 58.53C188.335 58.53 189.343 58.082 190.085 57.368L191.065 58.46C190.071 59.44 188.657 60.07 187.271 60.07C184.401 60.07 182.175 57.9 182.175 55.086C182.175 52.3 184.429 50.158 187.327 50.158C188.713 50.158 190.099 50.732 191.051 51.67L190.085 52.874ZM195.672 52.552H197.324L199.256 58.404L201.132 52.552H202.798L204.688 58.404L206.592 52.552H208.23L205.514 60H203.848L201.958 54.484L200.068 60H198.416L195.672 52.552ZM210.142 49.458C210.674 49.458 211.08 49.864 211.08 50.424C211.08 50.97 210.674 51.376 210.142 51.376C209.61 51.376 209.204 50.97 209.204 50.424C209.204 49.864 209.61 49.458 210.142 49.458ZM209.344 52.552H210.94V60H209.344V52.552ZM217.131 58.292L217.537 59.524C216.949 59.874 216.333 60.07 215.703 60.07C214.583 60.07 213.617 59.426 213.617 57.9V54.036H212.567V52.832H213.617V50.788H215.213V52.832H217.411V54.036H215.213V57.606C215.213 58.376 215.507 58.614 216.011 58.614C216.347 58.614 216.697 58.502 217.131 58.292ZM223.462 52.496C225.198 52.496 226.234 53.588 226.234 55.366V60H224.624V55.814C224.624 54.694 223.952 54.008 222.832 54.008C221.502 54.022 220.704 55.016 220.704 56.332V60H219.094V49.612H220.704V54.008C221.236 52.958 222.188 52.496 223.462 52.496ZM239.39 57.914V55.184H240.832V58.796C239.838 59.552 238.368 60.07 237.024 60.07C234.126 60.07 231.872 57.9 231.872 55.1C231.872 52.3 234.154 50.158 237.122 50.158C238.522 50.158 239.922 50.69 240.888 51.53L239.95 52.748C239.194 52.048 238.144 51.628 237.122 51.628C235.12 51.628 233.552 53.154 233.552 55.1C233.552 57.06 235.134 58.586 237.136 58.586C237.864 58.586 238.69 58.334 239.39 57.914ZM244.683 54.036C245.187 53.028 246.083 52.496 247.259 52.496V54.036C245.761 53.952 244.809 54.834 244.683 56.108V60H243.073V52.552H244.683V54.036ZM254.33 60H252.748V59.09C252.216 59.748 251.362 60.07 250.284 60.07C248.674 60.07 247.666 59.076 247.666 57.76C247.666 56.402 248.688 55.534 250.48 55.52H252.734V55.296C252.734 54.358 252.132 53.798 250.956 53.798C250.242 53.798 249.5 54.05 248.758 54.554L248.1 53.434C249.136 52.818 249.892 52.496 251.306 52.496C253.224 52.496 254.302 53.476 254.316 55.114L254.33 60ZM250.62 58.796C251.768 58.796 252.65 58.194 252.734 57.382V56.696H250.718C249.668 56.696 249.178 56.976 249.178 57.69C249.178 58.362 249.724 58.796 250.62 58.796ZM261.973 49.612H263.583V60H261.973V58.726C261.441 59.594 260.545 60.07 259.355 60.07C257.213 60.07 255.785 58.516 255.785 56.248C255.785 54.008 257.227 52.482 259.327 52.482C260.531 52.482 261.427 52.972 261.973 53.84V49.612ZM259.691 58.726C261.035 58.726 261.973 57.718 261.973 56.304C261.973 54.862 261.035 53.854 259.691 53.854C258.347 53.854 257.409 54.876 257.395 56.304C257.409 57.718 258.333 58.726 259.691 58.726ZM269.094 52.496C271.712 52.496 272.776 54.204 272.58 56.892H266.952C267.204 58.04 268.086 58.754 269.262 58.754C270.074 58.754 270.816 58.446 271.362 57.886L272.216 58.796C271.488 59.594 270.424 60.056 269.136 60.056C266.84 60.056 265.328 58.53 265.328 56.29C265.328 54.036 266.882 52.51 269.094 52.496ZM266.924 55.716H271.18C271.124 54.512 270.326 53.784 269.108 53.784C267.932 53.784 267.092 54.526 266.924 55.716ZM285.82 60L284.882 57.788H279.94L279.002 60H277.28L281.606 50.2H283.3L287.584 60H285.82ZM280.556 56.318H284.252L282.404 51.964L280.556 56.318ZM294.084 54.904V56.01H291.62V58.46H290.57V56.01H288.092V54.904H290.57V52.454H291.62V54.904H294.084ZM301.056 54.904V56.01H298.592V58.46H297.542V56.01H295.064V54.904H297.542V52.454H298.592V54.904H301.056Z" fill="#AF005F"/>
</svg>
